<svg xmlns="http://www.w3.org/2000/svg" width="960" height="720" viewBox="0 0 320 240"><defs><linearGradient id="bg" x2="1" y2="1"><stop stop-color="#101a30"/><stop offset="1" stop-color="#222440"/></linearGradient></defs><rect width="320" height="240" fill="url(#bg)"/><g font-family="Arial,sans-serif"><g fill="#bcc9e2" font-size="11"><text x="16" y="22">MOON · TODAY</text><text x="304" y="22" text-anchor="end">14:30</text></g><circle cx="53" cy="74" r="30" fill="#344258"/><path d="M53 44 A30 30 0 0 1 53 104Z" fill="#f5edd9"/><ellipse cx="53" cy="74" rx="13.8" ry="30" fill="#f5edd9"/><circle cx="53" cy="74" r="30" fill="none" stroke="#9ca9bd" stroke-width=".6"/><text x="98" y="67" fill="#f7efdf" font-size="20">Waxing gibbous</text><text x="98" y="87" fill="#b4bfd4" font-size="12">73% illuminated</text><text x="16" y="131" fill="#bac6dd" font-size="10">NEXT MAJOR PHASES</text><circle cx="43" cy="163" r="18" fill="#344258"/><circle cx="43" cy="163" r="18" fill="#f5edd9"/><circle cx="43" cy="163" r="18" fill="none" stroke="#9ca9bd" stroke-width=".6"/><text x="43" y="201" text-anchor="middle" fill="#f7efdf" font-size="12">Full</text><text x="43" y="218" text-anchor="middle" fill="#b4bfd4" font-size="10">in 3 days</text><circle cx="121" cy="163" r="18" fill="#344258"/><path d="M121 145 A18 18 0 0 0 121 181Z" fill="#f5edd9"/><circle cx="121" cy="163" r="18" fill="none" stroke="#9ca9bd" stroke-width=".6"/><text x="121" y="201" text-anchor="middle" fill="#f7efdf" font-size="12">Last qtr</text><text x="121" y="218" text-anchor="middle" fill="#b4bfd4" font-size="10">in 10 days</text><circle cx="199" cy="163" r="18" fill="#344258"/><circle cx="199" cy="163" r="18" fill="none" stroke="#9ca9bd" stroke-width=".6"/><text x="199" y="201" text-anchor="middle" fill="#f7efdf" font-size="12">New</text><text x="199" y="218" text-anchor="middle" fill="#b4bfd4" font-size="10">in 18 days</text><circle cx="277" cy="163" r="18" fill="#344258"/><path d="M277 145 A18 18 0 0 1 277 181Z" fill="#f5edd9"/><circle cx="277" cy="163" r="18" fill="none" stroke="#9ca9bd" stroke-width=".6"/><text x="277" y="201" text-anchor="middle" fill="#f7efdf" font-size="12">First qtr</text><text x="277" y="218" text-anchor="middle" fill="#b4bfd4" font-size="10">in 25 days</text></g></svg>